Coordinates
version=1
nRows=19
nColumns=24
inDegrees=yes

Units are S.I. units (second, meters, Newtons, ...)
Angles are in degrees.

endheader
time	pelvis_tilt	pelvis_list	pelvis_rotation	pelvis_tx	pelvis_ty	pelvis_tz	hip_flexion_r	hip_adduction_r	hip_rotation_r	knee_angle_r	ankle_angle_r	subtalar_angle_r	mtp_angle_r	hip_flexion_l	hip_adduction_l	hip_rotation_l	knee_angle_l	ankle_angle_l	subtalar_angle_l	mtp_angle_l	lumbar_extension	lumbar_bending	lumbar_rotation
      1.58833333	     -1.50407454	      7.53514933	     -3.94058967	      0.42432768	      0.98895277	      0.30341567	     16.52041843	     -9.38645533	      2.94978649	    -66.42968666	      4.09579217	    -12.19024889	      1.61439880	     10.68419112	     13.56703594	     -1.12360771	    -13.12907501	      3.04804477	    -14.77571864	     -2.82483427	      2.52759314	     -4.72385627	      5.73322178
      1.59250000	     -1.42973314	      7.46479788	     -3.81421718	      0.42895617	      0.98953060	      0.30309855	     17.03477645	     -9.28587916	      2.93752783	    -66.23091864	      4.58851881	    -12.25651546	      1.58729872	     10.13951437	     13.55998484	     -0.91689025	    -12.86511694	      3.13462579	    -14.73089322	     -2.83027265	      2.40309026	     -4.66437571	      5.55678002
      1.59666667	     -1.34897727	      7.37553938	     -3.68086949	      0.43358595	      0.99011757	      0.30279128	     17.52138012	     -9.16311754	      2.91643855	    -65.97556197	      5.05025805	    -12.27605073	      1.55904020	      9.58322613	     13.53057207	     -0.69743177	    -12.59813839	      3.22293019	    -14.68541714	     -2.83706322	      2.27045066	     -4.58540289	      5.36345591
      1.60083333	     -1.26437922	      7.31488742	     -3.54663293	      0.43820666	      0.99065725	      0.30247872	     18.00229476	     -9.07722439	      2.89670200	    -65.69335651	      5.50477158	    -12.24555703	      1.53110850	      9.02291254	     13.52888109	     -0.47708351	    -12.32380166	      3.30599787	    -14.64320459	     -2.84556850	      2.13550330	     -4.53849378	      5.16177770
      1.60500000	     -1.19490190	      7.22900877	     -3.40441993	      0.44281235	      0.99117437	      0.30218772	     18.47957266	     -8.95628707	      2.87133284	    -65.35631312	      5.92679551	    -12.18549045	      1.50291704	      8.48302654	     13.49432234	     -0.25205144	    -12.06379650	      3.39663921	    -14.59821313	     -2.85560546	      2.01413339	     -4.46514198	      4.95798823
      1.60916667	     -1.11579201	      7.15705607	     -3.25582314	      0.44745119	      0.99167655	      0.30188048	     18.93150706	     -8.86253339	      2.82970801	    -64.97918655	      6.34519400	    -12.10457796	      1.48014707	      7.92702177	     13.47154870	     -0.04245482	    -11.79346161	      3.49124459	    -14.53600499	     -2.86546543	      1.90667123	     -4.41130041	      4.76901719
      1.61333333	     -1.02575301	      7.09492020	     -3.11629973	      0.45203016	      0.99217181	      0.30159974	     19.37142099	     -8.76898829	      2.81638134	    -64.57038632	      6.72699424	    -11.95970655	      1.44546758	      7.35958536	     13.45684289	      0.19406333	    -11.51353267	      3.57133426	    -14.49480434	     -2.88291567	      1.74120722	     -4.36828274	      4.51358041
      1.61750000	     -0.93558751	      7.02828096	     -2.96511048	      0.45664528	      0.99264600	      0.30130900	     19.78753113	     -8.67777042	      2.78043312	    -64.11181788	      7.09559364	    -11.80436678	      1.40339866	      6.78666956	     13.43368519	      0.42044347	    -11.22991500	      3.66407142	    -14.45061096	     -2.90691347	      1.61020684	     -4.32263941	      4.26527152
      1.62166667	     -0.89260950	      6.95360800	     -2.79750383	      0.46122265	      0.99303106	      0.30101665	     20.24604132	     -8.57629493	      2.72944680	    -63.62592059	      7.45780664	    -11.70629310	      1.38044041	      6.28336047	     13.39285127	      0.63954266	    -10.98436439	      3.75937783	    -14.36786361	     -2.92151457	      1.52478748	     -4.26189042	      4.11117965
      1.62583333	     -0.79268073	      6.90696205	     -2.64936239	      0.46581927	      0.99345893	      0.30072814	     20.63607048	     -8.51315190	      2.69152458	    -63.10383102	      7.78220427	    -11.51729558	      1.33658996	      5.69601479	     13.38334126	      0.85848391	    -10.68446640	      3.84922254	    -14.31397395	     -2.95238451	      1.37517102	     -4.22870113	      3.83067596
      1.63000000	     -0.75388255	      6.82703888	     -2.47147418	      0.47037400	      0.99379972	      0.30045204	     21.06771400	     -8.40246272	      2.63712775	    -62.53733905	      8.09928304	    -11.42715952	      1.31376181	      5.20167303	     13.32704152	      1.07600582	    -10.44743262	      3.95605090	    -14.21491507	     -2.96883482	      1.29119429	     -4.17034284	      3.67942434
      1.63416667	     -0.66771753	      6.76647026	     -2.30619232	      0.47494891	      0.99418689	      0.30018199	     21.43789939	     -8.32107722	      2.58247179	    -61.93593866	      8.39846448	    -11.30152380	      1.28752968	      4.63951994	     13.29008521	      1.28687450	    -10.17172851	      4.05955959	    -14.11444405	     -2.98873708	      1.15468924	     -4.12696463	      3.46166859
      1.63833333	     -0.62326739	      6.71563226	     -2.13924196	      0.47949470	      0.99447626	      0.29990958	     21.84990758	     -8.24684100	      2.53454104	    -61.31176928	      8.65451073	    -11.19285927	      1.26134263	      4.12890747	     13.25809973	      1.49420246	     -9.90237862	      4.16220668	    -14.02100803	     -3.00830711	      1.06558115	     -4.09252221	      3.25537632
      1.64250000	     -0.52484473	      6.66611374	     -1.98283060	      0.48405719	      0.99483848	      0.29965236	     22.18578505	     -8.17850838	      2.48190103	    -60.64633828	      8.87843242	    -11.08994055	      1.21939617	      3.54339232	     13.22557049	      1.69666338	     -9.59831004	      4.26369211	    -13.92916077	     -3.03894519	      0.91023631	     -4.05449575	      2.98458402
      1.64666667	     -0.49498189	      6.60490280	     -1.79707127	      0.48857543	      0.99508161	      0.29938507	     22.57928083	     -8.09455721	      2.41229318	    -59.95076301	      9.10206837	    -11.04838242	      1.19313625	      3.05748783	     13.17182985	      1.90392576	     -9.34693285	      4.36329861	    -13.80936067	     -3.05590334	      0.83541359	     -4.01215298	      2.83176625
      1.65083333	     -0.44692245	      6.56732230	     -1.62462615	      0.49309101	      0.99530513	      0.29912742	     22.95039370	     -8.03869519	      2.35233874	    -59.23695467	      9.29985979	    -11.00805824	      1.16312110	      2.54340042	     13.14109741	      2.10412796	     -9.07234731	      4.47013086	    -13.69267715	     -3.07386803	      0.73825924	     -3.99218928	      2.62684668
      1.65500000	     -0.38294559	      6.52740196	     -1.46918893	      0.49761764	      0.99554694	      0.29889380	     23.29060716	     -7.97566414	      2.30190545	    -58.48621806	      9.44528681	    -10.99687501	      1.11347722	      2.00299513	     13.10362728	      2.28297085	     -8.77549983	      4.58137910	    -13.58709036	     -3.10160391	      0.62638327	     -3.96781015	      2.36421558
      1.65916667	     -0.35671344	      6.48552512	     -1.28392416	      0.50209997	      0.99570929	      0.29863831	     23.65575122	     -7.91671477	      2.22619502	    -57.71196661	      9.60251574	    -11.01788033	      1.07886443	      1.52178385	     13.05925972	      2.48260492	     -8.51617661	      4.67814301	    -13.45307976	     -3.11743200	      0.54982974	     -3.94388859	      2.21107356
      1.66333333	     -0.31287510	      6.45091413	     -1.11624247	      0.50658598	      0.99587687	      0.29841048	     23.99149872	     -7.86114458	      2.16351591	    -56.90822857	      9.72401235	    -11.07044239	      1.03491035	      1.01227478	     13.01809576	      2.66471824	     -8.23324654	      4.78291673	    -13.32339737	     -3.13523780	      0.45803936	     -3.93114126	      2.00463024
